<svg id="cart" xmlns="http://www.w3.org/2000/svg" width="27.534" height="31.161" viewBox="0 0 27.534 31.161">
  <path id="Path_44" data-name="Path 44" d="M57.171,19.243V8.061L35.144,4.084V2.709A2.712,2.712,0,0,0,32.435,0h-2.8V1.836h2.8a.874.874,0,0,1,.873.873V19.658a3.553,3.553,0,0,0,3.549,3.549h.735V25.3a3.059,3.059,0,1,0,1.82,3.109h.015v-5.2H55.336V25.3a3.059,3.059,0,1,0,1.82,3.109h.015V21.371H36.857a1.715,1.715,0,0,1-1.713-1.713v-.722Zm-20.8,10.083A1.224,1.224,0,1,1,37.591,28.1,1.225,1.225,0,0,1,36.368,29.326Zm17.744,0A1.224,1.224,0,1,1,55.336,28.1,1.225,1.225,0,0,1,54.112,29.326Zm-9.79-12.1-3.671-.051V6.943l3.671.663Zm1.836-9.291,3.365.608V17.3l-3.365-.047Zm-7.343,9.214L35.144,17.1V5.949l3.671.663Zm16.521.229-3.977-.055V8.877l3.977.718Z" transform="translate(-29.637 0)" fill="#eca753"/>
</svg>
