<svg id="delivery" xmlns="http://www.w3.org/2000/svg" width="72.932" height="52.651" viewBox="0 0 72.932 52.651">
  <path id="Path_124" data-name="Path 124" d="M72.926,35.51a7.484,7.484,0,0,0-6.73-4.16H53.562V22.9a5.39,5.39,0,0,0-5.384-5.384H18.469A5.39,5.39,0,0,0,13.085,22.9v1.786h3.072V22.9a2.314,2.314,0,0,1,2.311-2.311h29.71A2.314,2.314,0,0,1,50.49,22.9v37.7H34.7a8.031,8.031,0,0,0-15.767,0H12.2a1.536,1.536,0,1,0,0,3.072H18.93a8.031,8.031,0,0,0,15.767,0H55.511a8.031,8.031,0,0,0,15.768,0H76.4a1.536,1.536,0,0,0,1.536-1.536V45.883a1.531,1.531,0,0,0-.162-.687ZM26.814,67.092a4.963,4.963,0,1,1,4.962-4.962,4.963,4.963,0,0,1-4.962,4.962ZM66.2,34.422a4.429,4.429,0,0,1,3.982,2.461l4.681,9.362V47.3h-21.3V34.422Zm-2.8,32.67a4.963,4.963,0,1,1,4.962-4.962A4.963,4.963,0,0,1,63.395,67.092Zm7.884-6.5a8.031,8.031,0,0,0-15.768,0H53.562V50.374h21.3V60.593ZM9.325,32.339A1.536,1.536,0,0,1,10.861,30.8H32.847a1.536,1.536,0,0,1,0,3.072H10.861a1.536,1.536,0,0,1-1.536-1.536ZM5,40.682a1.536,1.536,0,0,1,1.536-1.536H28.8a1.536,1.536,0,1,1,0,3.072H6.536A1.536,1.536,0,0,1,5,40.682ZM30.34,49.026A1.536,1.536,0,0,1,28.8,50.562H13a1.536,1.536,0,0,1,0-3.072H28.8a1.536,1.536,0,0,1,1.536,1.536Z" transform="translate(-5 -17.514)" fill="#ff9d4f"/>
</svg>
