<svg xmlns="http://www.w3.org/2000/svg" width="58.34" height="59.673" viewBox="0 0 58.34 59.673">
  <g id="icon" transform="translate(4153.606 48.907)">
    <text id="B" transform="translate(-4137 -15)" fill="#eca753" font-size="32" font-family="Amigos"><tspan x="0" y="0">B</tspan></text>
    <g id="branch-with-leaves" transform="translate(-4122.281 -22.393) rotate(14)">
      <path id="Path_2" data-name="Path 2" d="M3.551,2.952c.795,1.389.144,1.92-.5,2.284S1.621,5.727.828,4.342A11.721,11.721,0,0,1,0,0S2.754,1.564,3.551,2.952Z" transform="translate(20.827 0)" fill="#eca753"/>
      <path id="Path_3" data-name="Path 3" d="M3.012,4.6c-.687,1.445-1.493,1.217-2.16.9S-.369,4.6.312,3.161A11.782,11.782,0,0,1,3.4,0S3.695,3.155,3.012,4.6Z" transform="translate(24.805 2.337)" fill="#eca753"/>
      <path id="Path_4" data-name="Path 4" d="M2.879,4.342c-1.036,1.22-1.757.791-2.318.308S-.386,3.474.642,2.257A11.7,11.7,0,0,1,4.444,0S3.912,3.122,2.879,4.342Z" transform="translate(25.404 8.052)" fill="#eca753"/>
      <path id="Path_5" data-name="Path 5" d="M4.656.839c1.42.827,1.13,1.613.751,2.252s-1,1.137-2.415.313A12.316,12.316,0,0,1,0,0S3.232.014,4.656.839Z" transform="translate(19.008 9.947)" fill="#eca753"/>
      <path id="Path_6" data-name="Path 6" d="M2.529,3.555C1.14,4.35.609,3.7.243,3.057S-.249,1.628,1.134.833A11.761,11.761,0,0,1,5.476,0S3.917,2.758,2.529,3.555Z" transform="translate(23.883 14.448)" fill="#eca753"/>
      <path id="Path_7" data-name="Path 7" d="M4.01,2.5c1.017,1.3.454,1.917-.132,2.371s-1.351.689-2.363-.6A12.329,12.329,0,0,1,0,0S2.994,1.21,4.01,2.5Z" transform="translate(18.81 12.585)" fill="#eca753"/>
      <path id="Path_8" data-name="Path 8" d="M2.017,3.085C.439,3.362.161,2.573.035,1.842S.052.332,1.62.051a11.754,11.754,0,0,1,4.37.69S3.586,2.8,2.017,3.085Z" transform="translate(21.488 19.649)" fill="#eca753"/>
      <path id="Path_9" data-name="Path 9" d="M3.355,3.355c.694,1.493,0,1.969-.675,2.277S1.212,5.991.524,4.506A12.275,12.275,0,0,1,.025,0S2.666,1.865,3.355,3.355Z" transform="translate(17.574 15.459)" fill="#eca753"/>
      <path id="Path_10" data-name="Path 10" d="M3.085,4.1C3.368,5.72,2.579,6,1.849,6.128S.333,6.1.052,4.483A12.349,12.349,0,0,1,.73,0S2.8,2.483,3.085,4.1Z" transform="translate(14.697 17.602)" fill="#eca753"/>
      <path id="Path_11" data-name="Path 11" d="M1.573,3.046C-.055,2.8-.072,1.964.04,1.233S.548-.193,2.169.05a12.353,12.353,0,0,1,4.039,2.06S3.2,3.289,1.573,3.046Z" transform="translate(17.732 23.325)" fill="#eca753"/>
      <path id="Path_12" data-name="Path 12" d="M3.065,4.318c.118,1.641-.7,1.842-1.437,1.891S.126,6.02.007,4.389A12.38,12.38,0,0,1,1.143,0S2.951,2.681,3.065,4.318Z" transform="translate(11.163 19.997)" fill="#eca753"/>
      <path id="Path_13" data-name="Path 13" d="M1.315,3.043C-.238,2.492-.1,1.666.158.968S.93-.334,2.475.212A12.345,12.345,0,0,1,6.042,3.007S2.86,3.589,1.315,3.043Z" transform="translate(13.334 26.067)" fill="#eca753"/>
      <path id="Path_14" data-name="Path 14" d="M4.686.122c1.578.427,1.5,1.266,1.3,1.978s-.669,1.357-2.24.931A12.14,12.14,0,0,1,0,.524S3.109-.3,4.686.122Z" transform="translate(18.513 6.191)" fill="#eca753"/>
      <path id="Path_15" data-name="Path 15" d="M12.195,0S4.74,2.932.089,1.888C-.276,2.322.6,2.958.6,2.958S7.374,3.063,12.195,0Z" transform="translate(0 27.08)" fill="#eca753"/>
    </g>
    <g id="branch-with-leaves-2" data-name="branch-with-leaves" transform="translate(-4125.169 -17.153) rotate(-172)">
      <path id="Path_2-2" data-name="Path 2" d="M3.551,2.952c.795,1.389.144,1.92-.5,2.284S1.621,5.727.828,4.342A11.721,11.721,0,0,1,0,0S2.754,1.564,3.551,2.952Z" transform="translate(20.827 0)" fill="#eca753"/>
      <path id="Path_3-2" data-name="Path 3" d="M3.012,4.6c-.687,1.445-1.493,1.217-2.16.9S-.369,4.6.312,3.161A11.782,11.782,0,0,1,3.4,0S3.695,3.155,3.012,4.6Z" transform="translate(24.805 2.337)" fill="#eca753"/>
      <path id="Path_4-2" data-name="Path 4" d="M2.879,4.342c-1.036,1.22-1.757.791-2.318.308S-.386,3.474.642,2.257A11.7,11.7,0,0,1,4.444,0S3.912,3.122,2.879,4.342Z" transform="translate(25.404 8.052)" fill="#eca753"/>
      <path id="Path_5-2" data-name="Path 5" d="M4.656.839c1.42.827,1.13,1.613.751,2.252s-1,1.137-2.415.313A12.316,12.316,0,0,1,0,0S3.232.014,4.656.839Z" transform="translate(19.008 9.947)" fill="#eca753"/>
      <path id="Path_6-2" data-name="Path 6" d="M2.529,3.555C1.14,4.35.609,3.7.243,3.057S-.249,1.628,1.134.833A11.761,11.761,0,0,1,5.476,0S3.917,2.758,2.529,3.555Z" transform="translate(23.883 14.448)" fill="#eca753"/>
      <path id="Path_7-2" data-name="Path 7" d="M4.01,2.5c1.017,1.3.454,1.917-.132,2.371s-1.351.689-2.363-.6A12.329,12.329,0,0,1,0,0S2.994,1.21,4.01,2.5Z" transform="translate(18.81 12.585)" fill="#eca753"/>
      <path id="Path_8-2" data-name="Path 8" d="M2.017,3.085C.439,3.362.161,2.573.035,1.842S.052.332,1.62.051a11.754,11.754,0,0,1,4.37.69S3.586,2.8,2.017,3.085Z" transform="translate(21.488 19.649)" fill="#eca753"/>
      <path id="Path_9-2" data-name="Path 9" d="M3.355,3.355c.694,1.493,0,1.969-.675,2.277S1.212,5.991.524,4.506A12.275,12.275,0,0,1,.025,0S2.666,1.865,3.355,3.355Z" transform="translate(17.574 15.459)" fill="#eca753"/>
      <path id="Path_10-2" data-name="Path 10" d="M3.085,4.1C3.368,5.72,2.579,6,1.849,6.128S.333,6.1.052,4.483A12.349,12.349,0,0,1,.73,0S2.8,2.483,3.085,4.1Z" transform="translate(14.697 17.602)" fill="#eca753"/>
      <path id="Path_11-2" data-name="Path 11" d="M1.573,3.046C-.055,2.8-.072,1.964.04,1.233S.548-.193,2.169.05a12.353,12.353,0,0,1,4.039,2.06S3.2,3.289,1.573,3.046Z" transform="translate(17.732 23.325)" fill="#eca753"/>
      <path id="Path_12-2" data-name="Path 12" d="M3.065,4.318c.118,1.641-.7,1.842-1.437,1.891S.126,6.02.007,4.389A12.38,12.38,0,0,1,1.143,0S2.951,2.681,3.065,4.318Z" transform="translate(11.163 19.997)" fill="#eca753"/>
      <path id="Path_13-2" data-name="Path 13" d="M1.315,3.043C-.238,2.492-.1,1.666.158.968S.93-.334,2.475.212A12.345,12.345,0,0,1,6.042,3.007S2.86,3.589,1.315,3.043Z" transform="translate(13.334 26.067)" fill="#eca753"/>
      <path id="Path_14-2" data-name="Path 14" d="M4.686.122c1.578.427,1.5,1.266,1.3,1.978s-.669,1.357-2.24.931A12.14,12.14,0,0,1,0,.524S3.109-.3,4.686.122Z" transform="translate(18.513 6.191)" fill="#eca753"/>
      <path id="Path_15-2" data-name="Path 15" d="M12.195,0S4.74,2.932.089,1.888C-.276,2.322.6,2.958.6,2.958S7.374,3.063,12.195,0Z" transform="translate(0 27.08)" fill="#eca753"/>
    </g>
  </g>
</svg>
