<svg xmlns="http://www.w3.org/2000/svg" width="141.418" height="59.422" viewBox="0 0 141.418 59.422">
  <g id="logo" transform="translate(-1.121 -2.145)">
    <text id="Bakery" transform="translate(17.727 36.052)" fill="#eca753" font-size="32" font-family="Amigos"><tspan x="0" y="0">Bakery</tspan></text>
    <g id="bread" transform="translate(114.671 21.259)">
      <path id="Path_16" data-name="Path 16" d="M26.227,98.791a.408.408,0,1,0-.528.623,3.287,3.287,0,0,1,1.352,2.426,1.967,1.967,0,0,1-.616,1.453,7.32,7.32,0,0,1-3.842,1.538,37.253,37.253,0,0,1-6.377.429c-4.055-.006-6.915-.356-8.705-1.07q1.034-.736,2.218-1.77a1.453,1.453,0,0,0,2.563-.8,8.672,8.672,0,0,0,0-1.612q1.075-1.072,1.944-2.03a5.511,5.511,0,0,1,.745,3.362,1.471,1.471,0,0,0,1.311,1.6,1.454,1.454,0,0,0,1.589-1.316,8.438,8.438,0,0,0-.988-4.873,21.941,21.941,0,0,1,2.291.19,5.877,5.877,0,0,1,1.249,2.8,5.6,5.6,0,0,1,0,1.6,1.458,1.458,0,1,0,2.885.419,8.553,8.553,0,0,0,0-2.447,8.381,8.381,0,0,0-.343-1.432,12.182,12.182,0,0,1,1.157.512.408.408,0,0,0,.37-.728,19.1,19.1,0,0,0-8.532-1.741q.33-.427.614-.833a7.934,7.934,0,0,0,1.777-4.273,2.782,2.782,0,0,0-.831-2.041c-1.154-1.151-3.109-1.333-5.5-.511A19.042,19.042,0,0,0,5.1,92.848C1.954,95.985,0,99.669,0,102.461a3.826,3.826,0,0,0,1.02,2.787,2.775,2.775,0,0,0,2.036.827,6.284,6.284,0,0,0,2.951-.927q.343-.19.7-.419c1.862.9,4.976,1.341,9.5,1.347a39.308,39.308,0,0,0,6.519-.442,7.933,7.933,0,0,0,4.278-1.765,2.782,2.782,0,0,0,.855-2.031,4.065,4.065,0,0,0-1.641-3.047ZM21.97,97.54a7.643,7.643,0,0,1,.54,1.895,7.735,7.735,0,0,1,0,2.213.638.638,0,0,1-.723.548.652.652,0,0,1-.545-.739,6.415,6.415,0,0,0,0-1.836,6.483,6.483,0,0,0-.927-2.49C20.89,97.244,21.443,97.381,21.97,97.54Zm-10.491,4a.637.637,0,0,1-1.14.335q.57-.517,1.176-1.1C11.516,101.029,11.5,101.286,11.48,101.541Zm5.49-2.2a7.734,7.734,0,0,1,.1,2.212.64.64,0,0,1-.7.581.652.652,0,0,1-.577-.713,6.344,6.344,0,0,0-.99-4.078q.257-.295.494-.58c.214-.008.43-.014.647-.016A7.742,7.742,0,0,1,16.97,99.337Zm-6.647-9.426a7.643,7.643,0,0,1,1.72.957,7.739,7.739,0,0,1,1.568,1.563.637.637,0,0,1-.074.858.654.654,0,0,1-.957-.1,6.416,6.416,0,0,0-1.3-1.3,6.482,6.482,0,0,0-2.415-1.105c.485-.325.973-.62,1.458-.88ZM2.313,97.78a7.639,7.639,0,0,1,1.783.887,7.741,7.741,0,0,1,1.636,1.491.638.638,0,0,1-.035.862.653.653,0,0,1-.959-.053A6.42,6.42,0,0,0,3.38,99.729a6.355,6.355,0,0,0-1.66-.794q.262-.572.593-1.155Zm3.3,6.654c-1.839,1.018-3.152,1.1-4.015.236a3,3,0,0,1-.78-2.209A7.923,7.923,0,0,1,1.4,99.692a5.561,5.561,0,0,1,1.521.714,5.6,5.6,0,0,1,1.184,1.08,1.473,1.473,0,0,0,2.166.112,1.451,1.451,0,0,0,.088-1.959,8.556,8.556,0,0,0-1.809-1.648,8.435,8.435,0,0,0-1.812-.924c.335-.53.707-1.06,1.115-1.584a6.019,6.019,0,0,1,3.028.974,5.6,5.6,0,0,1,1.184,1.08,1.457,1.457,0,1,0,2.254-1.848A8.666,8.666,0,0,0,9.255,94.6a.408.408,0,1,0-.529.622,7.847,7.847,0,0,1,.966.982.639.639,0,0,1-.082.9.651.651,0,0,1-.912-.1A6.418,6.418,0,0,0,7.341,95.78a6.658,6.658,0,0,0-2.864-1.058q.486-.568,1.023-1.116a7.912,7.912,0,0,1,1.721.623.408.408,0,1,0,.367-.729,8.633,8.633,0,0,0-1.411-.557,21.924,21.924,0,0,1,1.755-1.486,5.877,5.877,0,0,1,2.86,1.1,5.6,5.6,0,0,1,1.135,1.132,1.475,1.475,0,0,0,2.159.209,1.45,1.45,0,0,0,.177-1.953,8.553,8.553,0,0,0-1.733-1.727,8.385,8.385,0,0,0-1.255-.77q.513-.229,1.018-.4a7.665,7.665,0,0,1,2.448-.465,3.028,3.028,0,0,1,2.213.782,1.967,1.967,0,0,1,.592,1.463,7.321,7.321,0,0,1-1.629,3.8A20.844,20.844,0,0,1,14,97.023c-2.432,2.531-5.379,5.745-8.388,7.411Z" transform="translate(0 -87.761)" fill="#eca753"/>
    </g>
    <g id="branch-with-leaves" transform="matrix(0.588, 0.809, -0.809, 0.588, 77.673, 25.94)">
      <path id="Path_2" data-name="Path 2" d="M3.551,2.952c.795,1.389.144,1.92-.5,2.284S1.621,5.727.828,4.342A11.721,11.721,0,0,1,0,0S2.754,1.564,3.551,2.952Z" transform="translate(20.827 0)" fill="#eca753"/>
      <path id="Path_3" data-name="Path 3" d="M3.012,4.6c-.687,1.445-1.493,1.217-2.16.9S-.369,4.6.312,3.161A11.782,11.782,0,0,1,3.4,0S3.695,3.155,3.012,4.6Z" transform="translate(24.805 2.337)" fill="#eca753"/>
      <path id="Path_4" data-name="Path 4" d="M2.879,4.342c-1.036,1.22-1.757.791-2.318.308S-.386,3.474.642,2.257A11.7,11.7,0,0,1,4.444,0S3.912,3.122,2.879,4.342Z" transform="translate(25.404 8.052)" fill="#eca753"/>
      <path id="Path_5" data-name="Path 5" d="M4.656.839c1.42.827,1.13,1.613.751,2.252s-1,1.137-2.415.313A12.316,12.316,0,0,1,0,0S3.232.014,4.656.839Z" transform="translate(19.008 9.947)" fill="#eca753"/>
      <path id="Path_6" data-name="Path 6" d="M2.529,3.555C1.14,4.35.609,3.7.243,3.057S-.249,1.628,1.134.833A11.761,11.761,0,0,1,5.476,0S3.917,2.758,2.529,3.555Z" transform="translate(23.883 14.448)" fill="#eca753"/>
      <path id="Path_7" data-name="Path 7" d="M4.01,2.5c1.017,1.3.454,1.917-.132,2.371s-1.351.689-2.363-.6A12.329,12.329,0,0,1,0,0S2.994,1.21,4.01,2.5Z" transform="translate(18.81 12.585)" fill="#eca753"/>
      <path id="Path_8" data-name="Path 8" d="M2.017,3.085C.439,3.362.161,2.573.035,1.842S.052.332,1.62.051a11.754,11.754,0,0,1,4.37.69S3.586,2.8,2.017,3.085Z" transform="translate(21.488 19.649)" fill="#eca753"/>
      <path id="Path_9" data-name="Path 9" d="M3.355,3.355c.694,1.493,0,1.969-.675,2.277S1.212,5.991.524,4.506A12.275,12.275,0,0,1,.025,0S2.666,1.865,3.355,3.355Z" transform="translate(17.574 15.459)" fill="#eca753"/>
      <path id="Path_10" data-name="Path 10" d="M3.085,4.1C3.368,5.72,2.579,6,1.849,6.128S.333,6.1.052,4.483A12.349,12.349,0,0,1,.73,0S2.8,2.483,3.085,4.1Z" transform="translate(14.697 17.602)" fill="#eca753"/>
      <path id="Path_11" data-name="Path 11" d="M1.573,3.046C-.055,2.8-.072,1.964.04,1.233S.548-.193,2.169.05a12.353,12.353,0,0,1,4.039,2.06S3.2,3.289,1.573,3.046Z" transform="translate(17.732 23.325)" fill="#eca753"/>
      <path id="Path_12" data-name="Path 12" d="M3.065,4.318c.118,1.641-.7,1.842-1.437,1.891S.126,6.02.007,4.389A12.38,12.38,0,0,1,1.143,0S2.951,2.681,3.065,4.318Z" transform="translate(11.163 19.997)" fill="#eca753"/>
      <path id="Path_13" data-name="Path 13" d="M1.315,3.043C-.238,2.492-.1,1.666.158.968S.93-.334,2.475.212A12.345,12.345,0,0,1,6.042,3.007S2.86,3.589,1.315,3.043Z" transform="translate(13.334 26.067)" fill="#eca753"/>
      <path id="Path_14" data-name="Path 14" d="M4.686.122c1.578.427,1.5,1.266,1.3,1.978s-.669,1.357-2.24.931A12.14,12.14,0,0,1,0,.524S3.109-.3,4.686.122Z" transform="translate(18.513 6.191)" fill="#eca753"/>
      <path id="Path_15" data-name="Path 15" d="M12.195,0S4.74,2.932.089,1.888C-.276,2.322.6,2.958.6,2.958S7.374,3.063,12.195,0Z" transform="translate(0 27.08)" fill="#eca753"/>
    </g>
    <g id="branch-with-leaves-2" data-name="branch-with-leaves" transform="translate(29.558 33.9) rotate(-172)">
      <path id="Path_2-2" data-name="Path 2" d="M3.551,2.952c.795,1.389.144,1.92-.5,2.284S1.621,5.727.828,4.342A11.721,11.721,0,0,1,0,0S2.754,1.564,3.551,2.952Z" transform="translate(20.827 0)" fill="#eca753"/>
      <path id="Path_3-2" data-name="Path 3" d="M3.012,4.6c-.687,1.445-1.493,1.217-2.16.9S-.369,4.6.312,3.161A11.782,11.782,0,0,1,3.4,0S3.695,3.155,3.012,4.6Z" transform="translate(24.805 2.337)" fill="#eca753"/>
      <path id="Path_4-2" data-name="Path 4" d="M2.879,4.342c-1.036,1.22-1.757.791-2.318.308S-.386,3.474.642,2.257A11.7,11.7,0,0,1,4.444,0S3.912,3.122,2.879,4.342Z" transform="translate(25.404 8.052)" fill="#eca753"/>
      <path id="Path_5-2" data-name="Path 5" d="M4.656.839c1.42.827,1.13,1.613.751,2.252s-1,1.137-2.415.313A12.316,12.316,0,0,1,0,0S3.232.014,4.656.839Z" transform="translate(19.008 9.947)" fill="#eca753"/>
      <path id="Path_6-2" data-name="Path 6" d="M2.529,3.555C1.14,4.35.609,3.7.243,3.057S-.249,1.628,1.134.833A11.761,11.761,0,0,1,5.476,0S3.917,2.758,2.529,3.555Z" transform="translate(23.883 14.448)" fill="#eca753"/>
      <path id="Path_7-2" data-name="Path 7" d="M4.01,2.5c1.017,1.3.454,1.917-.132,2.371s-1.351.689-2.363-.6A12.329,12.329,0,0,1,0,0S2.994,1.21,4.01,2.5Z" transform="translate(18.81 12.585)" fill="#eca753"/>
      <path id="Path_8-2" data-name="Path 8" d="M2.017,3.085C.439,3.362.161,2.573.035,1.842S.052.332,1.62.051a11.754,11.754,0,0,1,4.37.69S3.586,2.8,2.017,3.085Z" transform="translate(21.488 19.649)" fill="#eca753"/>
      <path id="Path_9-2" data-name="Path 9" d="M3.355,3.355c.694,1.493,0,1.969-.675,2.277S1.212,5.991.524,4.506A12.275,12.275,0,0,1,.025,0S2.666,1.865,3.355,3.355Z" transform="translate(17.574 15.459)" fill="#eca753"/>
      <path id="Path_10-2" data-name="Path 10" d="M3.085,4.1C3.368,5.72,2.579,6,1.849,6.128S.333,6.1.052,4.483A12.349,12.349,0,0,1,.73,0S2.8,2.483,3.085,4.1Z" transform="translate(14.697 17.602)" fill="#eca753"/>
      <path id="Path_11-2" data-name="Path 11" d="M1.573,3.046C-.055,2.8-.072,1.964.04,1.233S.548-.193,2.169.05a12.353,12.353,0,0,1,4.039,2.06S3.2,3.289,1.573,3.046Z" transform="translate(17.732 23.325)" fill="#eca753"/>
      <path id="Path_12-2" data-name="Path 12" d="M3.065,4.318c.118,1.641-.7,1.842-1.437,1.891S.126,6.02.007,4.389A12.38,12.38,0,0,1,1.143,0S2.951,2.681,3.065,4.318Z" transform="translate(11.163 19.997)" fill="#eca753"/>
      <path id="Path_13-2" data-name="Path 13" d="M1.315,3.043C-.238,2.492-.1,1.666.158.968S.93-.334,2.475.212A12.345,12.345,0,0,1,6.042,3.007S2.86,3.589,1.315,3.043Z" transform="translate(13.334 26.067)" fill="#eca753"/>
      <path id="Path_14-2" data-name="Path 14" d="M4.686.122c1.578.427,1.5,1.266,1.3,1.978s-.669,1.357-2.24.931A12.14,12.14,0,0,1,0,.524S3.109-.3,4.686.122Z" transform="translate(18.513 6.191)" fill="#eca753"/>
      <path id="Path_15-2" data-name="Path 15" d="M12.195,0S4.74,2.932.089,1.888C-.276,2.322.6,2.958.6,2.958S7.374,3.063,12.195,0Z" transform="translate(0 27.08)" fill="#eca753"/>
    </g>
  </g>
</svg>
