<svg xmlns="http://www.w3.org/2000/svg" width="252.707" height="249.401" viewBox="0 0 252.707 249.401">
  <g id="sweet" transform="translate(12.906 -22.914) rotate(7)" opacity="0.09">
    <g id="Group_76" data-name="Group 76" transform="translate(17.003 20.999)">
      <g id="Group_75" data-name="Group 75" transform="translate(0 0)">
        <path id="Path_86" data-name="Path 86" d="M171.862,269.866a4.753,4.753,0,0,0-4.753,4.753,37.49,37.49,0,1,1-37.49-37.49,4.753,4.753,0,0,0,0-9.506,47,47,0,1,0,47,47A4.753,4.753,0,0,0,171.862,269.866Z" transform="translate(-51.436 -129.42)" fill="#ff9d4f"/>
        <path id="Path_87" data-name="Path 87" d="M244.181,99.182a23.567,23.567,0,0,0-9.1-18.509,23.345,23.345,0,0,0-18.507-32.062,23.421,23.421,0,0,0-32.047-18.537,23.442,23.442,0,0,0-37.049,0,23.371,23.371,0,0,0-32.046,18.535A23.371,23.371,0,0,0,96.9,80.661a23.105,23.105,0,0,0-6.5,7.848,23.072,23.072,0,0,0-13.725,8.573,23.367,23.367,0,0,0-32.053,18.541,23.374,23.374,0,0,0-18.535,32.048,23.443,23.443,0,0,0,0,37.049,23.424,23.424,0,0,0,18.537,32.05,23.358,23.358,0,0,0,32.069,18.512,23.366,23.366,0,0,0,37,0,23.406,23.406,0,0,0,32.069-18.513A23.4,23.4,0,0,0,164.265,184.7a23.678,23.678,0,0,0,6.492-7.841,23.54,23.54,0,0,0,13.753-8.6,23.394,23.394,0,0,0,32.06-18.51,23.394,23.394,0,0,0,18.509-32.063A23.563,23.563,0,0,0,244.181,99.182Zm-88.244,79.566a4.754,4.754,0,0,0-1.863,6.967,13.9,13.9,0,0,1-12.541,21.72,4.754,4.754,0,0,0-5.109,5.109,13.9,13.9,0,0,1-21.72,12.541,4.754,4.754,0,0,0-6.967,1.863,13.9,13.9,0,0,1-25.1,0,4.754,4.754,0,0,0-6.967-1.863,13.879,13.879,0,0,1-21.72-12.541,4.755,4.755,0,0,0-5.109-5.109,13.9,13.9,0,0,1-12.56-21.693,4.755,4.755,0,0,0-1.86-7,13.9,13.9,0,0,1,0-25.085,4.754,4.754,0,0,0,1.86-7,13.7,13.7,0,0,1-.568-14.828,13.92,13.92,0,0,1,13.128-6.864,4.754,4.754,0,0,0,5.109-5.109,13.941,13.941,0,0,1,6.876-13.135,13.78,13.78,0,0,1,14.817.575,4.754,4.754,0,0,0,7-1.86,13.9,13.9,0,0,1,25.085,0,4.754,4.754,0,0,0,7,1.86,13.676,13.676,0,0,1,14.785-.558,13.894,13.894,0,0,1,6.907,13.118,4.754,4.754,0,0,0,5.109,5.109,13.875,13.875,0,0,1,12.541,21.72,4.754,4.754,0,0,0,1.863,6.967,13.877,13.877,0,0,1,7.156,17.12c-.052.129-.1.261-.141.395A13.88,13.88,0,0,1,155.937,178.747Zm70.813-67.015a4.755,4.755,0,0,0-1.863,6.968,13.9,13.9,0,0,1-12.541,21.72,4.755,4.755,0,0,0-5.109,5.109,13.9,13.9,0,0,1-21.72,12.541,4.755,4.755,0,0,0-6.968,1.863,14.021,14.021,0,0,1-5.2,5.8,23.573,23.573,0,0,0-9.09-18.042c.222-.545.415-1.1.6-1.655a4.751,4.751,0,0,0,1.141.144,47.049,47.049,0,0,0,47-47,4.753,4.753,0,0,0-9.506,0A37.533,37.533,0,0,1,166,136.672c-.029,0-.058,0-.087,0a23.285,23.285,0,0,0-20.156-21.053A23.486,23.486,0,0,0,128.644,96.14,37.532,37.532,0,0,1,166,61.693a4.753,4.753,0,1,0,0-9.505A47.058,47.058,0,0,0,119.141,95.58a23.054,23.054,0,0,0-5.437,1.5,23.061,23.061,0,0,0-11.9-8.131,13.945,13.945,0,0,1,3.433-2.311,4.754,4.754,0,0,0,1.86-7,13.7,13.7,0,0,1-.568-14.829,13.928,13.928,0,0,1,13.128-6.863,4.754,4.754,0,0,0,5.109-5.109A13.94,13.94,0,0,1,131.638,39.7a13.7,13.7,0,0,1,14.816.575,4.754,4.754,0,0,0,7-1.86,13.9,13.9,0,0,1,25.085,0,4.754,4.754,0,0,0,7,1.86,13.748,13.748,0,0,1,14.784-.558,13.893,13.893,0,0,1,6.907,13.119,4.755,4.755,0,0,0,5.109,5.109,13.875,13.875,0,0,1,12.541,21.72,4.754,4.754,0,0,0,1.863,6.967,13.9,13.9,0,0,1,0,25.1Z" transform="translate(-17.003 -20.999)" fill="#ff9d4f"/>
        <circle id="Ellipse_1" data-name="Ellipse 1" cx="4.509" cy="4.509" r="4.509" transform="translate(82.383 125.688)" fill="#ff9d4f"/>
        <ellipse id="Ellipse_2" data-name="Ellipse 2" cx="6.012" cy="4.509" rx="6.012" ry="4.509" transform="translate(61.342 116.671)" fill="#ff9d4f"/>
        <circle id="Ellipse_3" data-name="Ellipse 3" cx="4.509" cy="4.509" r="4.509" transform="translate(127.472 62.564)" fill="#ff9d4f"/>
        <circle id="Ellipse_4" data-name="Ellipse 4" cx="4.509" cy="4.509" r="4.509" transform="translate(145.507 53.546)" fill="#ff9d4f"/>
        <circle id="Ellipse_5" data-name="Ellipse 5" cx="4.509" cy="4.509" r="4.509" transform="translate(163.543 65.57)" fill="#ff9d4f"/>
        <circle id="Ellipse_6" data-name="Ellipse 6" cx="4.509" cy="4.509" r="4.509" transform="translate(172.56 53.546)" fill="#ff9d4f"/>
        <circle id="Ellipse_7" data-name="Ellipse 7" cx="4.509" cy="4.509" r="4.509" transform="translate(163.543 89.617)" fill="#ff9d4f"/>
        <circle id="Ellipse_8" data-name="Ellipse 8" cx="4.509" cy="4.509" r="4.509" transform="translate(202.619 164.765)" fill="#ff9d4f"/>
        <circle id="Ellipse_9" data-name="Ellipse 9" cx="4.509" cy="4.509" r="4.509" transform="translate(43.306 8.458)" fill="#ff9d4f"/>
        <circle id="Ellipse_10" data-name="Ellipse 10" cx="4.509" cy="4.509" r="4.509" transform="translate(7.235 71.582)" fill="#ff9d4f"/>
        <ellipse id="Ellipse_11" data-name="Ellipse 11" cx="4.509" cy="6.012" rx="4.509" ry="6.012" transform="translate(136.489 197.83)" fill="#ff9d4f"/>
        <ellipse id="Ellipse_12" data-name="Ellipse 12" cx="6.012" cy="4.509" rx="6.012" ry="4.509" transform="translate(61.342 155.747)" fill="#ff9d4f"/>
        <circle id="Ellipse_13" data-name="Ellipse 13" cx="4.509" cy="4.509" r="4.509" transform="translate(82.383 143.724)" fill="#ff9d4f"/>
        <circle id="Ellipse_14" data-name="Ellipse 14" cx="4.509" cy="4.509" r="4.509" transform="translate(55.33 134.706)" fill="#ff9d4f"/>
        <circle id="Ellipse_15" data-name="Ellipse 15" cx="4.509" cy="4.509" r="4.509" transform="translate(100.419 137.712)" fill="#ff9d4f"/>
        <ellipse id="Ellipse_16" data-name="Ellipse 16" cx="7.515" cy="4.509" rx="7.515" ry="4.509" transform="translate(82.383 164.765)" fill="#ff9d4f"/>
        <path id="Path_88" data-name="Path 88" d="M90.26,109.518A14.258,14.258,0,1,0,76,95.26,14.274,14.274,0,0,0,90.26,109.518Zm0-19.011a4.753,4.753,0,1,1-4.753,4.753A4.758,4.758,0,0,1,90.26,90.507Z" transform="translate(-47.962 -52.484)" fill="#ff9d4f"/>
        <path id="Path_89" data-name="Path 89" d="M382.637,371a16.635,16.635,0,1,0,16.635,16.635A16.653,16.653,0,0,0,382.637,371Zm0,23.764a7.129,7.129,0,1,1,7.129-7.129A7.137,7.137,0,0,1,382.637,394.766Z" transform="translate(-200.132 -204.655)" fill="#ff9d4f"/>
      </g>
    </g>
  </g>
</svg>
